<svg width="130" height="130" viewBox="0 0 130 130" fill="none" xmlns="http://www.w3.org/2000/svg">
<path d="M130 63.1035C129.958 62.3237 129.641 61.584 129.106 61.0154C128.57 60.4469 127.851 60.0862 127.075 59.9973L119.063 58.7004C118.702 58.6413 118.37 58.4673 118.117 58.2043C117.864 57.9413 117.702 57.6034 117.656 57.241C117.503 56.2567 117.344 55.2348 117.125 54.266C117.055 53.9137 117.096 53.5481 117.243 53.2204C117.391 52.8926 117.637 52.6191 117.947 52.4379L125.066 48.4848C125.773 48.1245 126.322 47.5169 126.61 46.7776C126.899 46.0384 126.905 45.219 126.628 44.4754L125.394 41.0692C125.123 40.323 124.587 39.7029 123.887 39.3276C123.188 38.9522 122.375 38.848 121.603 39.0348L113.619 40.5973C113.262 40.6611 112.894 40.6106 112.567 40.4529C112.241 40.2952 111.972 40.0384 111.8 39.7192C111.334 38.8473 110.828 37.9598 110.3 37.0879C110.108 36.7773 110.018 36.4145 110.043 36.0502C110.068 35.686 110.206 35.3386 110.438 35.0567L115.75 28.9192C116.29 28.3398 116.6 27.5836 116.622 26.7921C116.645 26.0007 116.378 25.2282 115.872 24.6192L113.553 21.8348C113.049 21.2237 112.336 20.8214 111.552 20.706C110.768 20.5905 109.969 20.77 109.309 21.2098L102.319 25.4067C102.009 25.5924 101.647 25.6735 101.288 25.638C100.928 25.6026 100.59 25.4524 100.322 25.2098C99.5501 24.5317 98.7594 23.8785 98.0188 23.2754C97.7346 23.0511 97.5292 22.742 97.4325 22.393C97.3359 22.0441 97.353 21.6734 97.4813 21.3348L100.375 13.7098C100.69 12.9822 100.727 12.1643 100.479 11.4113C100.231 10.6583 99.7143 10.0228 99.0282 9.62541L95.8751 7.78479C95.1885 7.38887 94.38 7.26018 93.6044 7.42337C92.8288 7.58656 92.1408 8.03014 91.6719 8.66916L86.5626 15.0879C86.3788 15.3669 86.1035 15.5732 85.7842 15.6713C85.4648 15.7693 85.1213 15.7531 84.8126 15.6254C84.6219 15.5473 83.0094 14.8879 81.7563 14.4692C81.4126 14.3571 81.1137 14.1381 80.9034 13.844C80.6931 13.5499 80.5824 13.1963 80.5876 12.8348L80.7094 4.68791C80.753 3.89241 80.505 3.10832 80.0121 2.48247C79.5191 1.85661 78.8149 1.43192 78.0313 1.28791L74.4532 0.66291C73.6736 0.528225 72.8716 0.681146 72.1962 1.09326C71.5209 1.50536 71.0181 2.14864 70.7813 2.90354L68.1251 10.6567C68.0044 11.0008 67.7767 11.2973 67.4752 11.5026C67.1738 11.7078 66.8145 11.8111 66.4501 11.7973H63.4032C63.0415 11.8047 62.6868 11.6979 62.3894 11.4919C62.092 11.286 61.8672 10.9915 61.7469 10.6504L59.1032 2.94104C58.8706 2.18062 58.3688 1.53108 57.6917 1.11403C57.0147 0.696984 56.2088 0.541043 55.4251 0.67541L51.8407 1.30041C51.0621 1.44328 50.3618 1.86382 49.8699 2.48394C49.3779 3.10406 49.1277 3.88163 49.1657 4.67229L49.2907 12.8473C49.2932 13.2142 49.1771 13.5721 48.9598 13.8677C48.7424 14.1633 48.4354 14.3809 48.0844 14.4879C47.3688 14.766 45.8157 15.3598 45.1094 15.6223C44.4844 15.8473 43.8032 15.6004 43.2532 14.966L38.1719 8.71603C37.7057 8.07311 37.0183 7.62524 36.2418 7.45852C35.4654 7.29181 34.6547 7.41803 33.9657 7.81291L30.8219 9.63479C30.1283 10.0329 29.6066 10.6737 29.3573 11.4336C29.108 12.1935 29.1489 13.0188 29.4719 13.7504L32.3626 21.3567C32.4887 21.696 32.5052 22.0663 32.4099 22.4155C32.3146 22.7647 32.1123 23.0753 31.8313 23.3035C31.0719 23.9285 30.2938 24.5535 29.5188 25.2473C29.2527 25.488 28.9165 25.6373 28.5595 25.6733C28.2024 25.7093 27.8432 25.6301 27.5344 25.4473L20.6251 21.1692C19.9616 20.7376 19.1635 20.563 18.3804 20.678C17.5973 20.7931 16.8832 21.19 16.3719 21.7942L14.0626 24.5723C13.5496 25.1772 13.2777 25.95 13.2991 26.7428C13.3204 27.5356 13.6334 28.2927 14.1782 28.8692L19.5157 35.0004C19.7525 35.2767 19.8941 35.6219 19.9195 35.985C19.9448 36.348 19.8525 36.7095 19.6563 37.016C19.1219 37.866 18.6126 38.7598 18.1501 39.6535C17.977 39.975 17.7066 40.2335 17.3777 40.3918C17.0487 40.5501 16.678 40.6002 16.3188 40.5348L8.34693 38.9942C7.57508 38.8079 6.76169 38.9124 6.06195 39.2876C5.36221 39.6628 4.82513 40.2826 4.55318 41.0285L3.30318 44.4285C3.02689 45.1731 3.03335 45.9931 3.32133 46.7333C3.60932 47.4734 4.15881 48.0821 4.86568 48.4442L11.9844 52.3973C12.3046 52.574 12.5585 52.85 12.7079 53.1838C12.8573 53.5175 12.894 53.8908 12.8126 54.2473L12.7376 54.6442C12.5751 55.516 12.4251 56.341 12.2813 57.2192C12.2316 57.577 12.07 57.9099 11.8197 58.1703C11.5694 58.4308 11.2431 58.6054 10.8876 58.6692L2.85943 59.966C2.07432 60.0624 1.35115 60.4413 0.824957 61.0319C0.298767 61.6225 0.00554526 62.3844 5.32833e-05 63.1754V66.7942C-0.00452196 67.5882 0.285693 68.3556 0.814504 68.948C1.34332 69.5403 2.0731 69.9153 2.86255 70.0004L10.8876 71.2942C11.2482 71.3528 11.5801 71.5267 11.8336 71.7898C12.0871 72.0529 12.2486 72.391 12.2938 72.7535C12.4469 73.741 12.6063 74.7598 12.8251 75.7285C12.8955 76.0809 12.8542 76.4465 12.7069 76.7742C12.5595 77.102 12.3135 77.3755 12.0032 77.5567L4.88755 81.516C4.18069 81.8764 3.63092 82.4839 3.34282 83.2232C3.05473 83.9624 3.0484 84.7818 3.32505 85.5254L4.57505 88.9317C4.84638 89.6774 5.38287 90.2971 6.08209 90.6723C6.78131 91.0476 7.59425 91.1521 8.36568 90.966L16.3501 89.4192C16.7071 89.3544 17.0755 89.4045 17.4023 89.5622C17.7291 89.72 17.9975 89.9774 18.1688 90.2973C18.6376 91.1723 19.1407 92.0567 19.6688 92.9285C19.8615 93.2388 19.9519 93.6019 19.9273 93.9663C19.9026 94.3308 19.7641 94.6783 19.5313 94.9598L14.2188 101.094C13.6728 101.669 13.3556 102.424 13.3268 103.216C13.2981 104.009 13.5597 104.784 14.0626 105.397L16.3782 108.182C16.8822 108.793 17.5955 109.196 18.3797 109.312C19.1638 109.427 19.9629 109.247 20.6219 108.807L27.6126 104.61C27.9225 104.424 28.2839 104.343 28.6435 104.378C29.0031 104.414 29.3417 104.564 29.6094 104.807C30.3844 105.485 31.1719 106.138 31.9126 106.741C32.1966 106.966 32.402 107.274 32.4991 107.623C32.5963 107.972 32.5802 108.343 32.4532 108.682L29.5563 116.307C29.2412 117.034 29.2042 117.852 29.4525 118.605C29.7009 119.358 30.2171 119.994 30.9032 120.391L34.0626 122.216C34.7488 122.612 35.557 122.741 36.3326 122.579C37.1081 122.416 37.7964 121.973 38.2657 121.335L43.4376 114.975C43.8751 114.435 44.5625 114.194 45.0719 114.4C46.1594 114.85 46.8876 115.104 48.1782 115.535C48.522 115.647 48.821 115.866 49.0317 116.16C49.2425 116.454 49.354 116.808 49.3501 117.169L49.2251 125.31C49.1829 126.105 49.4313 126.888 49.9241 127.514C50.4168 128.14 51.1202 128.565 51.9032 128.71L55.4813 129.335C56.2611 129.471 57.0637 129.319 57.7393 128.906C58.415 128.494 58.9176 127.85 59.1532 127.094L61.8094 119.354C61.9296 119.009 62.1573 118.712 62.4588 118.507C62.7604 118.302 63.1199 118.199 63.4844 118.213H66.5313C66.893 118.205 67.248 118.312 67.5455 118.518C67.843 118.724 68.0677 119.018 68.1876 119.36L70.8344 127.069C71.0395 127.738 71.4536 128.324 72.0159 128.741C72.5783 129.158 73.2595 129.383 73.9594 129.385C74.146 129.385 74.3322 129.369 74.5157 129.335L78.1001 128.71C78.8786 128.567 79.5789 128.146 80.0708 127.526C80.5628 126.906 80.813 126.129 80.7751 125.338L80.6501 117.163C80.6476 116.803 80.7599 116.451 80.9706 116.159C81.1813 115.867 81.4794 115.649 81.8219 115.538C83.0219 115.135 83.8657 114.81 84.6063 114.522L84.7938 114.45C85.7626 114.116 86.2313 114.522 86.5032 114.86L91.7376 121.307C92.2067 121.944 92.8944 122.387 93.6693 122.549C94.4441 122.712 95.2516 122.583 95.9376 122.188L99.0844 120.366C99.7728 119.968 100.291 119.331 100.539 118.576C100.787 117.821 100.749 117.001 100.431 116.272L97.5438 108.666C97.4164 108.327 97.3988 107.957 97.4936 107.607C97.5884 107.258 97.7907 106.947 98.0719 106.719C98.8313 106.094 99.6094 105.469 100.384 104.775C100.652 104.534 100.99 104.385 101.349 104.35C101.708 104.315 102.069 104.396 102.378 104.582L109.375 108.769C110.038 109.201 110.837 109.376 111.62 109.261C112.403 109.146 113.117 108.749 113.628 108.144L115.941 105.363C116.454 104.758 116.726 103.985 116.704 103.192C116.683 102.4 116.37 101.642 115.825 101.066L110.494 94.9192C110.257 94.6429 110.115 94.2977 110.09 93.9346C110.065 93.5716 110.157 93.21 110.353 92.9035C110.888 92.0567 111.397 91.1629 111.859 90.266C112.033 89.9452 112.304 89.6873 112.632 89.5291C112.961 89.3709 113.332 89.3204 113.691 89.3848L121.653 90.9379C122.425 91.1242 123.238 91.0197 123.938 90.6445C124.638 90.2692 125.175 89.6495 125.447 88.9035L126.681 85.5035C126.957 84.7594 126.951 83.9398 126.663 83.2002C126.375 82.4606 125.825 81.8525 125.119 81.491L117.994 77.5317C117.678 77.3532 117.428 77.0778 117.281 76.7463C117.135 76.4148 117.098 76.0447 117.178 75.691L117.253 75.2942C117.416 74.4223 117.566 73.5973 117.709 72.7192C117.759 72.3614 117.921 72.0284 118.171 71.768C118.421 71.5076 118.748 71.333 119.103 71.2692L127.131 69.9754C127.918 69.8804 128.644 69.5018 129.172 68.9105C129.7 68.3192 129.994 67.5557 130 66.7629V63.1035ZM41.7344 92.4785C41.345 93.1557 40.8005 93.7308 40.1455 94.1566C39.4906 94.5824 38.7441 94.8467 37.9671 94.9278C37.1902 95.0089 36.4051 94.9046 35.6764 94.6233C34.9476 94.342 34.296 93.8919 33.7751 93.3098C26.7349 85.5255 22.8477 75.3973 22.8719 64.9016C22.8962 54.4059 26.8302 44.2958 33.9063 36.5442C34.43 35.9623 35.0844 35.5132 35.8156 35.2339C36.5469 34.9546 37.334 34.853 38.1122 34.9375C38.8904 35.022 39.6374 35.2903 40.2916 35.7201C40.9458 36.1499 41.4886 36.7291 41.8751 37.4098L56.1407 62.5192C56.569 63.268 56.7944 64.1158 56.7944 64.9785C56.7944 65.8413 56.569 66.689 56.1407 67.4379L41.7344 92.4785ZM65.0001 107.222C62.0263 107.223 59.0608 106.909 56.1532 106.285C55.3957 106.116 54.6888 105.77 54.0897 105.277C53.4905 104.783 53.0161 104.156 52.7047 103.445C52.3934 102.734 52.2539 101.96 52.2976 101.185C52.3413 100.41 52.567 99.6562 52.9563 98.9848L67.3313 73.9848C67.7637 73.2315 68.3872 72.6056 69.139 72.1705C69.8907 71.7354 70.744 71.5064 71.6126 71.5067H100.406C101.182 71.5055 101.947 71.687 102.639 72.0365C103.332 72.3861 103.932 72.8939 104.391 73.5187C104.851 74.1435 105.157 74.8678 105.284 75.6328C105.412 76.3979 105.357 77.1822 105.125 77.9223C99.6594 94.8973 83.7501 107.222 65.0001 107.222ZM67.3469 56.0035L53.1251 30.9598C52.7396 30.2873 52.5178 29.5335 52.4776 28.7595C52.4374 27.9854 52.5799 27.2127 52.8935 26.5039C53.2072 25.7951 53.6832 25.17 54.2831 24.6792C54.883 24.1883 55.59 23.8456 56.3469 23.6785C59.1922 23.0789 62.0923 22.7773 65.0001 22.7785C83.7501 22.7785 99.6594 35.1035 105.116 52.0879C105.348 52.8279 105.402 53.6123 105.275 54.3774C105.148 55.1424 104.842 55.8667 104.382 56.4915C103.923 57.1163 103.322 57.6241 102.63 57.9737C101.938 58.3232 101.173 58.5047 100.397 58.5035H71.6469C70.7729 58.5053 69.9142 58.2747 69.1586 57.8354C68.4031 57.3961 67.7778 56.7639 67.3469 56.0035Z" fill="#1C1D20"/>
</svg>
