<svg width="121" height="122" viewBox="0 0 121 122" fill="none" xmlns="http://www.w3.org/2000/svg">
<path d="M4.25 32.875H9.875M4.25 89.125H9.875M111.125 32.875H116.75M111.125 89.125H116.75M88.625 10.375V4.75M32.375 10.375V4.75M88.625 117.25V111.625M32.375 117.25V111.625M94.25 30.625V91.375C94.25 92.2701 93.8944 93.1286 93.2615 93.7615C92.6286 94.3944 91.7701 94.75 90.875 94.75H30.125C29.2299 94.75 28.3714 94.3944 27.7385 93.7615C27.1056 93.1286 26.75 92.2701 26.75 91.375V30.625C26.75 29.7299 27.1056 28.8714 27.7385 28.2385C28.3714 27.6056 29.2299 27.25 30.125 27.25H90.875C91.7701 27.25 92.6286 27.6056 93.2615 28.2385C93.8944 28.8714 94.25 29.7299 94.25 30.625Z" stroke="black" stroke-width="8" stroke-linecap="round" stroke-linejoin="round"/>
</svg>
