<svg width="119" height="100" viewBox="0 0 119 100" fill="none" xmlns="http://www.w3.org/2000/svg">
<path d="M44.4595 77.7H20.65V83.25C20.65 86.025 18.43 88.8 15.1 88.8H9.55C6.775 88.8 4 86.025 4 83.25V38.85L15.655 5.55C16.765 2.22 19.54 0 23.425 0H84.475C87.805 0 91.135 2.22 92.245 5.55L103.401 37.407C99.271 32.868 94.0581 29.45 88.249 27.4725L82.255 11.1H25.09L19.54 27.75H64.5505C58.3345 29.97 52.8955 33.855 48.844 38.85H15.1V66.6H41.074C41.629 70.5405 42.85 74.259 44.4595 77.7ZM20.65 52.725C20.65 57.165 24.535 61.05 28.975 61.05C33.415 61.05 37.3 57.165 37.3 52.725C37.3 48.285 33.415 44.4 28.975 44.4C24.535 44.4 20.65 48.285 20.65 52.725ZM76.7605 36.6855C62.8855 36.6855 51.7855 47.7855 51.7855 61.6605C51.7855 75.5355 62.8855 86.6355 76.7605 86.6355C81.7 86.6355 86.14 85.248 90.025 82.8615L107.286 99.9L115 92.1855L97.906 74.925C100.348 71.151 101.736 66.6 101.736 61.6605C101.736 47.7855 90.6355 36.6855 76.7605 36.6855ZM76.7605 47.7855C84.475 47.7855 90.6355 54.0015 90.6355 61.6605C90.6355 69.3195 84.475 75.5355 76.7605 75.5355C69.046 75.5355 62.8855 69.375 62.8855 61.6605C62.8855 53.946 69.1015 47.7855 76.7605 47.7855Z" fill="black"/>
</svg>
