<svg width="120" height="122" viewBox="0 0 120 122" fill="none" xmlns="http://www.w3.org/2000/svg">
<path d="M53.7375 23.4563H72.5251L93.1288 2.78995C93.711 2.20297 94.4036 1.73707 95.1667 1.41913C95.9299 1.10119 96.7484 0.9375 97.5752 0.9375C98.4019 0.9375 99.2204 1.10119 99.9836 1.41913C100.747 1.73707 101.439 2.20297 102.022 2.78995L118.179 19.0099C119.345 20.1833 120 21.7705 120 23.425C120 25.0795 119.345 26.6667 118.179 27.8401L103.838 42.2439H53.7375V54.7689C53.7375 56.4299 53.0777 58.0228 51.9032 59.1972C50.7288 60.3717 49.1359 61.0315 47.4749 61.0315C45.814 61.0315 44.2211 60.3717 43.0467 59.1972C41.8722 58.0228 41.2124 56.4299 41.2124 54.7689V35.9814C41.2124 32.6595 42.532 29.4737 44.8809 27.1248C47.2298 24.7759 50.4156 23.4563 53.7375 23.4563ZM16.1623 54.7689V79.8191L1.8211 94.1603C0.654696 95.3336 0 96.9209 0 98.5753C0 100.23 0.654696 101.817 1.8211 102.99L17.9784 119.21C18.5606 119.797 19.2532 120.263 20.0164 120.581C20.7795 120.899 21.5981 121.063 22.4248 121.063C23.2515 121.063 24.0701 120.899 24.8332 120.581C25.5964 120.263 26.289 119.797 26.8712 119.21L53.7375 92.3441H78.7876C80.4485 92.3441 82.0414 91.6843 83.2159 90.5099C84.3903 89.3354 85.0501 87.7425 85.0501 86.0816V79.8191H91.3126C92.9736 79.8191 94.5665 79.1593 95.7409 77.9848C96.9154 76.8104 97.5752 75.2175 97.5752 73.5565V67.294H103.838C105.499 67.294 107.092 66.6342 108.266 65.4597C109.44 64.2853 110.1 62.6924 110.1 61.0315V54.7689H66.2625V61.0315C66.2625 64.3533 64.9429 67.5391 62.594 69.888C60.2451 72.2369 57.0593 73.5565 53.7375 73.5565H41.2124C37.8906 73.5565 34.7048 72.2369 32.3559 69.888C30.007 67.5391 28.6873 64.3533 28.6873 61.0315V42.2439L16.1623 54.7689Z" fill="black"/>
</svg>
