<svg width="135" height="135" viewBox="0 0 135 135" fill="none" xmlns="http://www.w3.org/2000/svg">
<path d="M29.6147 12C22.6514 12 17 17.6514 17 24.6147V36.3413C17.0027 39.0392 17.7264 41.6874 19.0961 44.0118C20.4659 46.3361 22.432 48.2521 24.7908 49.5615L53.8147 65.6982C47.7354 68.7673 42.8684 73.7964 40 79.9729C37.1317 86.1494 36.4295 93.1126 38.0069 99.7375C39.5843 106.362 43.3493 112.262 48.6934 116.483C54.0375 120.704 60.6487 123 67.4588 123C74.2688 123 80.88 120.704 86.2242 116.483C91.5683 112.262 95.3332 106.362 96.9107 99.7375C98.4881 93.1126 97.7859 86.1494 94.9175 79.9729C92.0491 73.7964 87.1821 68.7673 81.1028 65.6982L110.137 49.5716C112.495 48.2601 114.46 46.3419 115.828 44.0157C117.196 41.6895 117.918 39.0399 117.918 36.3413V24.6147C117.918 17.6514 112.266 12 105.303 12H29.6147ZM27.0918 24.6147C27.0918 23.9456 27.3576 23.3039 27.8307 22.8307C28.3039 22.3576 28.9456 22.0918 29.6147 22.0918H47.2753V50.5202L29.6853 40.7514C28.8992 40.3142 28.2442 39.6748 27.7882 38.8995C27.3322 38.1241 27.0917 37.2409 27.0918 36.3413V24.6147ZM57.367 56.1212V22.0918H77.5505V56.1212L67.4588 61.7322L57.367 56.1212ZM87.6423 50.5202V22.0918H105.303C105.972 22.0918 106.614 22.3576 107.087 22.8307C107.56 23.3039 107.826 23.9456 107.826 24.6147V36.3413C107.826 37.2409 107.585 38.1241 107.129 38.8995C106.673 39.6748 106.018 40.3142 105.232 40.7514L87.6423 50.5202ZM87.6423 92.734C87.6423 98.087 85.5158 103.221 81.7307 107.006C77.9455 110.791 72.8118 112.918 67.4588 112.918C62.1058 112.918 56.972 110.791 53.1869 107.006C49.4017 103.221 47.2753 98.087 47.2753 92.734C47.2753 87.3811 49.4017 82.2473 53.1869 78.4622C56.972 74.677 62.1058 72.5505 67.4588 72.5505C72.8118 72.5505 77.9455 74.677 81.7307 78.4622C85.5158 82.2473 87.6423 87.3811 87.6423 92.734Z" fill="black"/>
</svg>
