<svg width="131" height="98" viewBox="0 0 131 98" fill="none" xmlns="http://www.w3.org/2000/svg">
<path d="M39.2665 77.6523C46.721 92.9335 65.9656 97.3661 82.861 88.5008L107.996 66.494C116.236 59.9561 122.354 52.3942 126.352 43.8083C132.349 10.3836 95.1673 -5.41694 78.272 10.3836L54.335 32.9629C52.7709 34.9086 50.9639 35.1693 48.9139 33.7449L43.1267 27.1225C39.2665 22.2207 20.5443 24.67 27.8455 41.5122L42.6543 56.1678C45.8889 58.6203 51.1005 63.3627 57.3068 57.0562L88.0257 28.427C103.251 18.2041 110.079 35.7251 103.563 42.0878C83.6055 62.809 71.4202 73.9693 67.0073 75.5689C63.3036 79.2695 48.235 82.6073 39.2665 77.6523ZM39.2665 77.6523C25.8111 69.275 15.4672 59.7496 8.23481 49.0762C-7.03703 19.5085 35.3062 -14.9579 61.3265 16.4304L65.9688 22.3239" stroke="black" stroke-width="8" stroke-linecap="round" stroke-linejoin="round"/>
</svg>
