<svg width="160" height="160" viewBox="0 0 160 160" fill="none" xmlns="http://www.w3.org/2000/svg">
<path d="M118 118C121.315 118 124.495 119.317 126.839 121.661C129.183 124.005 130.5 127.185 130.5 130.5C130.5 133.815 129.183 136.995 126.839 139.339C124.495 141.683 121.315 143 118 143C114.685 143 111.505 141.683 109.161 139.339C106.817 136.995 105.5 133.815 105.5 130.5C105.5 123.562 111.062 118 118 118ZM18 18H38.4375L44.3125 30.5H136.75C138.408 30.5 139.997 31.1585 141.169 32.3306C142.342 33.5027 143 35.0924 143 36.75C143 37.8125 142.687 38.875 142.25 39.875L119.875 80.3125C117.75 84.125 113.625 86.75 108.938 86.75H62.375L56.75 96.9375L56.5625 97.6875C56.5625 98.1019 56.7271 98.4993 57.0201 98.7924C57.3132 99.0854 57.7106 99.25 58.125 99.25H130.5V111.75H55.5C52.1848 111.75 49.0054 110.433 46.6612 108.089C44.317 105.745 43 102.565 43 99.25C43 97.0625 43.5625 95 44.5 93.25L53 77.9375L30.5 30.5H18V18ZM55.5 118C58.8152 118 61.9946 119.317 64.3388 121.661C66.683 124.005 68 127.185 68 130.5C68 133.815 66.683 136.995 64.3388 139.339C61.9946 141.683 58.8152 143 55.5 143C52.1848 143 49.0054 141.683 46.6612 139.339C44.317 136.995 43 133.815 43 130.5C43 123.562 48.5625 118 55.5 118ZM111.75 74.25L129.125 43H50.125L64.875 74.25H111.75Z" fill="black"/>
</svg>
