<svg width="135" height="136" viewBox="0 0 135 136" fill="none" xmlns="http://www.w3.org/2000/svg">
<path d="M35.4946 59.875C37.6495 59.875 39.7161 59.019 41.2398 57.4952C42.7635 55.9715 43.6196 53.9049 43.6196 51.75C43.6196 49.5951 42.7635 47.5285 41.2398 46.0048C39.7161 44.481 37.6495 43.625 35.4946 43.625C33.3397 43.625 31.2731 44.481 29.7493 46.0048C28.2256 47.5285 27.3696 49.5951 27.3696 51.75C27.3696 53.9049 28.2256 55.9715 29.7493 57.4952C31.2731 59.019 33.3397 59.875 35.4946 59.875ZM67.9946 76.125C70.1494 76.125 72.2161 75.269 73.7398 73.7452C75.2635 72.2215 76.1196 70.1549 76.1196 68C76.1196 65.8451 75.2635 63.7785 73.7398 62.2548C72.2161 60.731 70.1494 59.875 67.9946 59.875C65.8397 59.875 63.7731 60.731 62.2493 62.2548C60.7256 63.7785 59.8696 65.8451 59.8696 68C59.8696 70.1549 60.7256 72.2215 62.2493 73.7452C63.7731 75.269 65.8397 76.125 67.9946 76.125ZM92.3695 100.5C92.3695 102.655 91.5135 104.721 89.9898 106.245C88.466 107.769 86.3994 108.625 84.2445 108.625C82.0897 108.625 80.023 107.769 78.4993 106.245C76.9756 104.721 76.1196 102.655 76.1196 100.5C76.1196 98.3451 76.9756 96.2785 78.4993 94.7547C80.023 93.231 82.0897 92.375 84.2445 92.375C86.3994 92.375 88.466 93.231 89.9898 94.7547C91.5135 96.2785 92.3695 98.3451 92.3695 100.5ZM43.6196 100.5C45.7745 100.5 47.8411 99.644 49.3648 98.1202C50.8885 96.5965 51.7446 94.5299 51.7446 92.375C51.7446 90.2201 50.8885 88.1535 49.3648 86.6297C47.8411 85.106 45.7745 84.25 43.6196 84.25C41.4647 84.25 39.3981 85.106 37.8743 86.6297C36.3506 88.1535 35.4946 90.2201 35.4946 92.375C35.4946 94.5299 36.3506 96.5965 37.8743 98.1202C39.3981 99.644 41.4647 100.5 43.6196 100.5ZM67.9946 3.00002C54.6376 3.00114 41.6053 7.11711 30.6707 14.788C19.7361 22.4588 11.4301 33.312 6.88281 45.8711C2.33552 58.4301 1.7677 72.0852 5.25661 84.9784C8.74552 97.8716 16.1218 109.377 26.3818 117.929C36.6418 126.481 49.2874 131.665 62.5981 132.775C75.9088 133.885 89.2384 130.868 100.773 124.133C112.308 117.398 121.488 107.274 127.064 95.1365C132.641 82.9992 134.343 69.4388 131.938 56.3C131.8 55.55 131.454 54.854 130.939 54.2916C130.424 53.7291 129.761 53.323 129.027 53.1195C128.292 52.9161 127.514 52.9236 126.784 53.1412C126.053 53.3588 125.398 53.7777 124.894 54.35C122.714 56.8331 119.829 58.5927 116.623 59.3941C113.418 60.1955 110.044 60.0007 106.952 58.8356C103.86 57.6704 101.197 55.5904 99.3171 52.8728C97.4376 50.1552 96.4312 46.9292 96.432 43.625C96.4339 42.5862 96.0803 41.5781 95.4299 40.7681C94.7796 39.9582 93.8717 39.3951 92.857 39.1725C90.0002 38.5293 87.3703 37.1261 85.2453 35.1113C83.1203 33.0964 81.5793 30.5448 80.7852 27.7262C79.991 24.9076 79.9733 21.9268 80.7338 19.0989C81.4944 16.2711 83.005 13.7013 85.1058 11.6613C85.6277 11.1545 86.004 10.5168 86.1953 9.81493C86.3866 9.11303 86.3859 8.37265 86.1933 7.67111C86.0007 6.96958 85.6232 6.33263 85.1003 5.82682C84.5774 5.32101 83.9283 4.96488 83.2208 4.79565C78.234 3.59853 73.123 2.99579 67.9946 3.00002ZM11.1196 68C11.1191 59.9333 12.8346 51.9588 16.1522 44.6059C19.4697 37.253 24.3135 30.6899 30.3618 25.3524C36.4101 20.0149 43.5247 16.025 51.2331 13.6477C58.9415 11.2704 67.0674 10.56 75.0714 11.5638C73.3591 14.6739 72.3468 18.1205 72.1054 21.6626C71.864 25.2047 72.3992 28.7568 73.6738 32.0705C74.9483 35.3842 76.9314 38.3794 79.4842 40.8468C82.0371 43.3141 85.0981 45.194 88.4533 46.355C88.9043 50.3693 90.346 54.2086 92.6486 57.5277C94.9513 60.8467 98.0427 63.5414 101.645 65.3696C105.247 67.1977 109.247 68.1019 113.286 68.0008C117.324 67.8997 121.274 66.7966 124.78 64.7906C124.834 65.8469 124.864 66.9167 124.87 68C124.87 75.4689 123.398 82.8647 120.54 89.7651C117.682 96.6655 113.493 102.935 108.211 108.217C102.93 113.498 96.6601 117.687 89.7597 120.546C82.8593 123.404 75.4635 124.875 67.9946 124.875C60.5256 124.875 53.1298 123.404 46.2294 120.546C39.3291 117.687 33.0592 113.498 27.7779 108.217C22.4965 102.935 18.3072 96.6655 15.4489 89.7651C12.5907 82.8647 11.1196 75.4689 11.1196 68Z" fill="black"/>
</svg>
